HIERARCHY
ROOT Root
{
  OFFSET 0.0 0.0 0.0
  CHANNELS 6 Xposition Yposition Zposition Zrotation Yrotation Xrotation
  JOINT Hips
  {
    OFFSET 0.0 100.0 0.0
    CHANNELS 6 Xposition Yposition Zposition Zrotation Yrotation Xrotation
    JOINT Spine1
    {
      OFFSET -0.013727 5.003763 -0.053727
      CHANNELS 3 Zrotation Yrotation Xrotation
      JOINT Spine2
      {
        OFFSET -0.0 7.125301 -0.029825
        CHANNELS 3 Zrotation Yrotation Xrotation
        JOINT Chest
        {
          OFFSET -1e-06 7.550063 -0.815971
          CHANNELS 3 Zrotation Yrotation Xrotation
          JOINT Neck1
          {
            OFFSET -0.181677 26.311295 -0.553348
            CHANNELS 3 Zrotation Yrotation Xrotation
            JOINT Neck2
            {
              OFFSET -3e-06 7.709397 2.302585
              CHANNELS 3 Zrotation Yrotation Xrotation
              JOINT Head
              {
                OFFSET -5e-06 6.128916 1.953709
                CHANNELS 3 Zrotation Yrotation Xrotation
                JOINT HeadEnd
                {
                  OFFSET 0.003598 16.065403 -1.835379
                  CHANNELS 3 Zrotation Yrotation Xrotation
                }
                JOINT Jaw
                {
                  OFFSET 0.002637 0.475592 3.094941
                  CHANNELS 3 Zrotation Yrotation Xrotation
                }
                JOINT LeftEye
                {
                  OFFSET 3.206381 5.380205 7.586883
                  CHANNELS 3 Zrotation Yrotation Xrotation
                }
                JOINT RightEye
                {
                  OFFSET -3.22244 5.361869 7.558234
                  CHANNELS 3 Zrotation Yrotation Xrotation
                }
              }
            }
          }
          JOINT LeftShoulder
          {
            OFFSET 1.621652 23.237164 5.113413
            CHANNELS 3 Zrotation Yrotation Xrotation
            JOINT LeftArm
            {
              OFFSET 14.919846 2e-06 -5.502326
              CHANNELS 3 Zrotation Yrotation Xrotation
              JOINT LeftForeArm
              {
                OFFSET 28.739307 0.0 -0.002588
                CHANNELS 3 Zrotation Yrotation Xrotation
                JOINT LeftHand
                {
                  OFFSET 27.093981 -1e-06 0.002609
                  CHANNELS 3 Zrotation Yrotation Xrotation
                  JOINT LeftHandThumb1
                  {
                    OFFSET 2.276482 -1.392045 3.191413
                    CHANNELS 3 Zrotation Yrotation Xrotation
                    JOINT LeftHandThumb2
                    {
                      OFFSET 4.012836 -1.828127 1.641654
                      CHANNELS 3 Zrotation Yrotation Xrotation
                      JOINT LeftHandThumb3
                      {
                        OFFSET 2.798515 0.0 -3e-06
                        CHANNELS 3 Zrotation Yrotation Xrotation
                        JOINT LeftHandThumbEnd
                        {
                          OFFSET 3.180793 -4e-06 4e-06
                          CHANNELS 3 Zrotation Yrotation Xrotation
                        }
                      }
                    }
                  }
                  JOINT LeftHandIndex1
                  {
                    OFFSET 3.247555 -0.531998 2.296169
                    CHANNELS 3 Zrotation Yrotation Xrotation
                    JOINT LeftHandIndex2
                    {
                      OFFSET 6.364578 0.01206 0.1786
                      CHANNELS 3 Zrotation Yrotation Xrotation
                      JOINT LeftHandIndex3
                      {
                        OFFSET 3.662364 0.0 0.0
                        CHANNELS 3 Zrotation Yrotation Xrotation
                        JOINT LeftHandIndex4
                        {
                          OFFSET 2.329242 4e-06 4e-06
                          CHANNELS 3 Zrotation Yrotation Xrotation
                          JOINT LeftHandIndexEnd
                          {
                            OFFSET 2.759615 -0.180537 -0.113024
                            CHANNELS 3 Zrotation Yrotation Xrotation
                          }
                        }
                      }
                    }
                  }
                  JOINT LeftHandMiddle1
                  {
                    OFFSET 3.163495 0.240981 1.000332
                    CHANNELS 3 Zrotation Yrotation Xrotation
                    JOINT LeftHandMiddle2
                    {
                      OFFSET 6.19078 -0.259278 -1.002548
                      CHANNELS 3 Zrotation Yrotation Xrotation
                      JOINT LeftHandMiddle3
                      {
                        OFFSET 4.35652 -4e-06 -1e-06
                        CHANNELS 3 Zrotation Yrotation Xrotation
                        JOINT LeftHandMiddle4
                        {
                          OFFSET 2.996877 -8e-06 0.0
                          CHANNELS 3 Zrotation Yrotation Xrotation
                          JOINT LeftHandMiddleEnd
                          {
                            OFFSET 2.304287 -0.294569 -0.031741
                            CHANNELS 3 Zrotation Yrotation Xrotation
                          }
                        }
                      }
                    }
                  }
                  JOINT LeftHandRing1
                  {
                    OFFSET 2.882643 -0.053652 -0.322543
                    CHANNELS 3 Zrotation Yrotation Xrotation
                    JOINT LeftHandRing2
                    {
                      OFFSET 5.854541 -0.486202 -1.373841
                      CHANNELS 3 Zrotation Yrotation Xrotation
                      JOINT LeftHandRing3
                      {
                        OFFSET 4.350578 0.0 3e-06
                        CHANNELS 3 Zrotation Yrotation Xrotation
                        JOINT LeftHandRing4
                        {
                          OFFSET 2.651321 7e-06 2e-06
                          CHANNELS 3 Zrotation Yrotation Xrotation
                          JOINT LeftHandRingEnd
                          {
                            OFFSET 1.936105 0.077687 -7.1e-05
                            CHANNELS 3 Zrotation Yrotation Xrotation
                          }
                        }
                      }
                    }
                  }
                  JOINT LeftHandPinky1
                  {
                    OFFSET 2.8655 -0.310005 -1.600378
                    CHANNELS 3 Zrotation Yrotation Xrotation
                    JOINT LeftHandPinky2
                    {
                      OFFSET 5.087849 -1.331141 -1.77123
                      CHANNELS 3 Zrotation Yrotation Xrotation
                      JOINT LeftHandPinky3
                      {
                        OFFSET 3.070974 4e-06 0.0
                        CHANNELS 3 Zrotation Yrotation Xrotation
                        JOINT LeftHandPinky4
                        {
                          OFFSET 1.549672 0.0 1e-06
                          CHANNELS 3 Zrotation Yrotation Xrotation
                          JOINT LeftHandPinkyEnd
                          {
                            OFFSET 1.944893 -0.157802 0.057219
                            CHANNELS 3 Zrotation Yrotation Xrotation
                          }
                        }
                      }
                    }
                  }
                }
              }
            }
          }
          JOINT RightShoulder
          {
            OFFSET -1.380118 23.180309 5.214158
            CHANNELS 3 Zrotation Yrotation Xrotation
            JOINT RightArm
            {
              OFFSET -15.037196 1.2e-05 -5.545604
              CHANNELS 3 Zrotation Yrotation Xrotation
              JOINT RightForeArm
              {
                OFFSET -28.736639 2e-06 -0.002597
                CHANNELS 3 Zrotation Yrotation Xrotation
                JOINT RightHand
                {
                  OFFSET -27.133619 -0.0 0.002613
                  CHANNELS 3 Zrotation Yrotation Xrotation
                  JOINT RightHandThumb1
                  {
                    OFFSET -2.274032 -1.383988 3.163127
                    CHANNELS 3 Zrotation Yrotation Xrotation
                    JOINT RightHandThumb2
                    {
                      OFFSET -4.011429 -1.827466 1.640914
                      CHANNELS 3 Zrotation Yrotation Xrotation
                      JOINT RightHandThumb3
                      {
                        OFFSET -2.794935 -4e-06 -3e-06
                        CHANNELS 3 Zrotation Yrotation Xrotation
                        JOINT RightHandThumbEnd
                        {
                          OFFSET -3.183852 4e-06 1e-06
                          CHANNELS 3 Zrotation Yrotation Xrotation
                        }
                      }
                    }
                  }
                  JOINT RightHandIndex1
                  {
                    OFFSET -3.253266 -0.520057 2.282866
                    CHANNELS 3 Zrotation Yrotation Xrotation
                    JOINT RightHandIndex2
                    {
                      OFFSET -6.341917 0.012471 0.178266
                      CHANNELS 3 Zrotation Yrotation Xrotation
                      JOINT RightHandIndex3
                      {
                        OFFSET -3.654871 -8e-06 -0.0
                        CHANNELS 3 Zrotation Yrotation Xrotation
                        JOINT RightHandIndex4
                        {
                          OFFSET -2.327586 0.0 1e-06
                          CHANNELS 3 Zrotation Yrotation Xrotation
                          JOINT RightHandIndexEnd
                          {
                            OFFSET -2.76179 -0.180656 -0.113078
                            CHANNELS 3 Zrotation Yrotation Xrotation
                          }
                        }
                      }
                    }
                  }
                  JOINT RightHandMiddle1
                  {
                    OFFSET -3.168106 0.246593 1.00103
                    CHANNELS 3 Zrotation Yrotation Xrotation
                    JOINT RightHandMiddle2
                    {
                      OFFSET -6.180828 -0.258836 -1.000895
                      CHANNELS 3 Zrotation Yrotation Xrotation
                      JOINT RightHandMiddle3
                      {
                        OFFSET -4.348901 0.0 -0.0
                        CHANNELS 3 Zrotation Yrotation Xrotation
                        JOINT RightHandMiddle4
                        {
                          OFFSET -3.00024 -4e-06 -2e-06
                          CHANNELS 3 Zrotation Yrotation Xrotation
                          JOINT RightHandMiddleEnd
                          {
                            OFFSET -2.30252 -0.29437 -0.031706
                            CHANNELS 3 Zrotation Yrotation Xrotation
                          }
                        }
                      }
                    }
                  }
                  JOINT RightHandRing1
                  {
                    OFFSET -2.88569 -0.067952 -0.308858
                    CHANNELS 3 Zrotation Yrotation Xrotation
                    JOINT RightHandRing2
                    {
                      OFFSET -5.854198 -0.48613 -1.373731
                      CHANNELS 3 Zrotation Yrotation Xrotation
                      JOINT RightHandRing3
                      {
                        OFFSET -4.33881 -4e-06 -0.0
                        CHANNELS 3 Zrotation Yrotation Xrotation
                        JOINT RightHandRing4
                        {
                          OFFSET -2.654903 -4e-06 4e-06
                          CHANNELS 3 Zrotation Yrotation Xrotation
                          JOINT RightHandRingEnd
                          {
                            OFFSET -1.933568 0.077527 -5.2e-05
                            CHANNELS 3 Zrotation Yrotation Xrotation
                          }
                        }
                      }
                    }
                  }
                  JOINT RightHandPinky1
                  {
                    OFFSET -2.866425 -0.342796 -1.584145
                    CHANNELS 3 Zrotation Yrotation Xrotation
                    JOINT RightHandPinky2
                    {
                      OFFSET -5.091371 -1.332055 -1.772385
                      CHANNELS 3 Zrotation Yrotation Xrotation
                      JOINT RightHandPinky3
                      {
                        OFFSET -3.062664 -4e-06 1e-06
                        CHANNELS 3 Zrotation Yrotation Xrotation
                        JOINT RightHandPinky4
                        {
                          OFFSET -1.546529 4e-06 -2e-06
                          CHANNELS 3 Zrotation Yrotation Xrotation
                          JOINT RightHandPinkyEnd
                          {
                            OFFSET -1.945119 -0.157718 0.057211
                            CHANNELS 3 Zrotation Yrotation Xrotation
                          }
                        }
                      }
                    }
                  }
                }
              }
            }
          }
        }
      }
    }
    JOINT LeftLeg
    {
      OFFSET 10.043214 -8.434526 2.595655
      CHANNELS 3 Zrotation Yrotation Xrotation
      JOINT LeftShin
      {
        OFFSET -1e-06 -43.221752 -0.802913
        CHANNELS 3 Zrotation Yrotation Xrotation
        JOINT LeftFoot
        {
          OFFSET 1e-06 -42.155094 -3.481523
          CHANNELS 3 Zrotation Yrotation Xrotation
          JOINT LeftToeBase
          {
            OFFSET 0.0 -5.059472 13.231529
            CHANNELS 3 Zrotation Yrotation Xrotation
            JOINT LeftToeEnd
            {
              OFFSET -0.009607 -1.647619 6.513017
              CHANNELS 3 Zrotation Yrotation Xrotation
            }
          }
        }
      }
    }
    JOINT RightLeg
    {
      OFFSET -10.047278 -8.29526 2.620317
      CHANNELS 3 Zrotation Yrotation Xrotation
      JOINT RightShin
      {
        OFFSET 1e-06 -43.362206 -0.805556
        CHANNELS 3 Zrotation Yrotation Xrotation
        JOINT RightFoot
        {
          OFFSET 2e-06 -42.117393 -3.478398
          CHANNELS 3 Zrotation Yrotation Xrotation
          JOINT RightToeBase
          {
            OFFSET -0.0 -5.079609 13.284196
            CHANNELS 3 Zrotation Yrotation Xrotation
            JOINT RightToeEnd
            {
              OFFSET 0.009532 -1.634378 6.460591
              CHANNELS 3 Zrotation Yrotation Xrotation
            }
          }
        }
      }
    }
  }
}
MOTION
Frames: 4
Frame Time: 0.03333333333333333
0.0 0.0 0.0 0.0 -0.0 0.0 0.510837 99.744484 -2.204707 -1.759388 -0.26095 -5.491195 0.679499 0.338066 -3.573506 -0.15754 0.518577 -6.703745 0.019497 -0.562562 18.769363 -6.011927 6.341193 9.166959 3.981653 17.610544 -2.881375 -5.070288 24.371407 -10.766795 7.7e-05 -2.1e-05 6e-06 0.036949 -0.432731 -0.13206 0.77536 -4.231328 -10.766651 -0.704989 3.397761 -10.729309 -24.096251 -3.990726 16.388828 -50.442692 -5.584716 19.857561 0.155395 -34.228619 0.151757 4.020968 3.815545 -31.896198 -5.882109 9.861291 0.702591 -10.936875 -0.360575 7.156208 -0.0 8.77483 -1e-06 -15.629337 17.811304 6.332523 -1.844033 2.498506 -2.507279 -10.163604 4.678948 4.621109 -20.976034 -3e-06 1e-06 -21.226301 2.451698 -3.594004 1e-06 -6e-06 -0.0 -1.362682 2.240798 -0.746324 -21.334925 0.584911 3.008323 -13.821218 -3e-06 0.0 -23.887178 -0.24908 -0.839487 -59.856956 2.405678 -1.242907 -0.294025 1.679687 0.833256 -14.218215 0.093216 1.30058 -34.212067 -0.287562 0.967167 -20.033222 0.964536 1.212844 0.0 0.0 0.0 -3.44039 0.788233 0.501656 -15.928191 -3.16731 2.999707 -6.338828 -2e-06 1e-06 -18.123457 3.648183 -4.905674 -5e-06 -0.0 -1e-06 16.967999 9.088552 17.844933 61.149673 9.427952 27.396271 -0.092315 31.972225 -0.092089 -4.721749 -3.253461 -26.003843 2.243543 -5.25504 -3.180159 14.282898 -0.826595 6.952505 -2e-06 -12.690615 0.0 16.264404 -17.585154 2.625641 1.665667 -1.955922 -2.878299 4.727801 -4.17059 4.993925 11.020534 3e-06 -1e-06 12.109058 -3.735718 -2.866787 -1e-06 -0.0 0.0 1.291986 -1.928551 -1.49809 14.800136 0.567469 3.865607 14.242579 -1.341738 -6.66066 19.631975 0.143927 -0.648245 49.57103 -0.616543 -6.12087 0.35303 -1.51115 -0.03194 20.222801 3.684313 2.316629 18.787285 7e-06 -2e-06 10.751631 -0.479868 1.397905 2e-06 -1e-06 1e-06 3.273809 0.305947 -0.58011 21.486824 11.830385 2.266134 8.16293 2e-06 -1e-06 18.399088 -3.798988 -4.94058 4e-06 1e-06 -2e-06 8.149007 13.156774 2.973443 0.011954 0.083016 11.168607 -10.687304 4.392015 -7.715378 1.605757 -2.036255 2.278926 0.0 -0.0 2e-06 -1.852162 -6.811627 1.7677 0.036238 -0.02445 7.919168 -0.473676 -5.053655 -3.604285 -1.417485 1.028662 3.259416 -0.0 -0.0 -1e-06 
0.0 0.0 0.0 0.0 -0.0 0.0 0.529286 99.77784 -2.167842 -1.73438 -0.203077 -5.477904 0.689947 0.333606 -3.614304 -0.136374 0.615866 -6.708369 -0.015299 -0.52338 18.730545 -6.48436 6.623236 9.051405 4.141309 18.171726 -2.806226 -5.295368 25.049603 -10.778685 7.7e-05 -2.2e-05 6e-06 0.032535 -0.421992 -0.121845 0.771678 -4.214822 -10.771415 -0.710125 3.402086 -10.726027 -24.144403 -3.929035 16.33259 -50.506065 -5.646498 19.874058 0.077155 -34.266182 0.118743 4.062146 3.872875 -31.443972 -5.88211 9.861293 0.70259 -10.936877 -0.360577 7.156207 1e-06 8.774832 -1e-06 -15.636455 17.801464 6.314409 -1.844034 2.498507 -2.507279 -10.163604 4.678949 4.621109 -20.97604 -5e-06 0.0 -21.226303 2.451697 -3.594005 2e-06 -6e-06 -0.0 -1.362682 2.240799 -0.746324 -21.334929 0.584906 3.008322 -13.821221 -4e-06 1e-06 -23.887184 -0.249082 -0.839485 -59.819168 2.447943 -1.201806 -0.294025 1.679689 0.833256 -14.218216 0.093214 1.30058 -34.21207 -0.287566 0.967167 -20.033226 0.964534 1.212842 -0.0 0.0 -3e-06 -3.44039 0.788233 0.501655 -15.928196 -3.167313 2.999706 -6.338829 -2e-06 1e-06 -18.123459 3.648185 -4.905675 -5e-06 -0.0 -1e-06 16.938671 9.071339 17.933044 61.101711 9.422128 27.395966 -0.086404 31.875561 -0.12943 -4.694746 -3.12322 -26.126432 2.243544 -5.255042 -3.180158 14.282897 -0.826595 6.952501 1e-06 -12.690615 -2e-06 16.275747 -17.613871 2.59346 1.665668 -1.955925 -2.878299 4.727802 -4.17059 4.993923 11.020534 2e-06 -2e-06 12.10906 -3.735719 -2.866785 -0.0 -0.0 1e-06 1.291987 -1.928553 -1.49809 14.800136 0.567467 3.865606 14.242583 -1.34174 -6.660664 19.631985 0.143925 -0.648249 49.669277 -0.608514 -6.122782 0.35303 -1.511152 -0.03194 20.222801 3.68431 2.316627 18.787285 4e-06 -5e-06 10.751634 -0.479868 1.397903 2e-06 -1e-06 -0.0 3.273808 0.305947 -0.58011 21.486824 11.830384 2.266132 8.16293 1e-06 -3e-06 18.399094 -3.798988 -4.940583 4e-06 1e-06 0.0 8.110929 13.172569 3.172642 0.001791 0.041911 10.757586 -10.74509 4.350176 -7.532142 1.604718 -2.063742 2.294676 -0.0 0.0 2e-06 -1.874281 -6.71953 2.050301 0.02657 -0.011181 7.371767 -0.536141 -5.113492 -3.386931 -1.423528 1.018328 3.335112 0.0 0.0 -1e-06 
0.0 0.0 0.0 0.0 -0.0 0.0 0.527376 99.790642 -2.13802 -1.70084 -0.078898 -5.471574 0.717335 0.330572 -3.649723 -0.122877 0.691496 -6.735229 -0.03532 -0.425457 18.749437 -7.021887 6.933939 8.872777 4.311267 18.845741 -2.735792 -5.54182 25.959141 -10.698646 7.7e-05 -2e-05 6e-06 0.0324 -0.427557 -0.117637 0.76712 -4.214818 -10.78044 -0.705926 3.390236 -10.7238 -24.160645 -3.889075 16.247717 -50.589619 -5.659818 19.985945 0.054897 -34.346867 0.053706 4.128525 4.01287 -31.117476 -5.882106 9.861284 0.70259 -10.93687 -0.360575 7.156203 -0.0 8.774824 -1e-06 -15.65588 17.836653 6.307781 -1.844033 2.498505 -2.507277 -10.163599 4.678944 4.621107 -20.976021 -4e-06 1e-06 -21.226286 2.451695 -3.594001 1e-06 -6e-06 -0.0 -1.362682 2.240798 -0.746323 -21.334913 0.584908 3.008322 -13.821213 -3e-06 2e-06 -23.887171 -0.249078 -0.839483 -59.822575 2.461259 -1.241369 -0.294025 1.679688 0.833256 -14.218209 0.093215 1.30058 -34.212051 -0.287566 0.967169 -20.033215 0.964535 1.212844 -1e-06 -0.0 -1e-06 -3.440389 0.788234 0.501655 -15.928185 -3.16731 2.999705 -6.338827 -1e-06 1e-06 -18.123446 3.648182 -4.905673 -5e-06 -0.0 -1e-06 16.867931 9.090419 18.039478 61.084396 9.4481 27.452694 -0.075133 31.821859 -0.156828 -4.835901 -3.085257 -26.327257 2.243541 -5.255036 -3.180157 14.282892 -0.826595 6.9525 -1e-06 -12.690605 2e-06 16.277115 -17.587887 2.579527 1.665666 -1.955921 -2.878298 4.727798 -4.170589 4.993925 11.020526 2e-06 -2e-06 12.109052 -3.735716 -2.866784 -1e-06 0.0 -1e-06 1.291986 -1.92855 -1.498089 14.800129 0.567468 3.865606 14.242574 -1.341735 -6.660659 19.631964 0.143925 -0.648246 49.674183 -0.621828 -6.147378 0.353029 -1.511151 -0.031941 20.222788 3.684308 2.31663 18.78727 4e-06 -2e-06 10.751625 -0.479868 1.397904 1e-06 -0.0 -1e-06 3.273806 0.305947 -0.58011 21.486813 11.830376 2.26613 8.16293 3e-06 -1e-06 18.39908 -3.798987 -4.940576 5e-06 1e-06 -2e-06 8.053388 13.086992 3.25426 0.004439 0.005657 10.551827 -10.759237 4.296804 -7.435851 1.603825 -2.078159 2.325119 -0.0 0.0 2e-06 -1.898544 -6.64423 2.162501 0.021942 -0.009884 7.20214 -0.604237 -5.275645 -3.337189 -1.425566 1.018817 3.396039 -0.0 -0.0 -1e-06 
0.0 0.0 0.0 0.0 -0.0 0.0 0.512385 99.793892 -2.113184 -1.662757 0.11054 -5.468708 0.741472 0.329415 -3.66293 -0.106268 0.752152 -6.755844 -0.049836 -0.290469 18.753458 -7.574367 7.238945 8.698487 4.482181 19.528254 -2.653685 -5.796525 26.941681 -10.666427 7.7e-05 -2e-05 6e-06 0.033691 -0.438272 -0.114858 0.764271 -4.218464 -10.781202 -0.700584 3.371765 -10.713837 -24.165665 -3.850824 16.152517 -50.642162 -5.677999 20.232588 0.077914 -34.383106 0.014582 4.235542 4.146148 -30.928944 -5.88211 9.861288 0.70259 -10.936877 -0.360575 7.156207 -0.0 8.77483 -2e-06 -15.683853 17.827784 6.299571 -1.844033 2.498505 -2.507278 -10.163604 4.678947 4.621109 -20.976038 -4e-06 0.0 -21.226301 2.451697 -3.594002 2e-06 -6e-06 -0.0 -1.362682 2.2408 -0.746324 -21.334925 0.584909 3.008323 -13.821218 -4e-06 1e-06 -23.887178 -0.24908 -0.839484 -59.837143 2.452134 -1.277899 -0.294025 1.679688 0.833256 -14.218215 0.093216 1.30058 -34.212067 -0.287565 0.96717 -20.033226 0.964536 1.212844 -0.0 0.0 -2e-06 -3.44039 0.788233 0.501656 -15.928198 -3.167311 2.999707 -6.33883 -1e-06 0.0 -18.123457 3.648183 -4.905674 -5e-06 0.0 -2e-06 16.750286 9.140469 18.130529 61.092377 9.4972 27.674849 -0.12049 31.832634 -0.195868 -4.957869 -3.121413 -26.443148 2.243541 -5.255035 -3.180159 14.282892 -0.826593 6.952501 -2e-06 -12.690602 1e-06 16.270895 -17.559666 2.578983 1.665666 -1.95592 -2.878298 4.727798 -4.170586 4.993922 11.020528 5e-06 -1e-06 12.109055 -3.735712 -2.866785 -0.0 0.0 1e-06 1.291986 -1.928548 -1.498088 14.800127 0.56747 3.865605 14.242571 -1.341734 -6.660657 19.631969 0.143928 -0.648244 49.625301 -0.654921 -6.161783 0.353029 -1.511153 -0.031941 20.222794 3.684311 2.31663 18.78727 8e-06 -0.0 10.751628 -0.479866 1.397907 1e-06 -1e-06 1e-06 3.273808 0.305947 -0.58011 21.486818 11.830376 2.26613 8.162928 2e-06 -1e-06 18.39908 -3.798981 -4.940575 4e-06 1e-06 0.0 7.989758 12.951623 3.266685 0.011097 -0.023911 10.454875 -10.739798 4.25575 -7.377314 1.603146 -2.081547 2.334196 -0.0 1e-06 2e-06 -1.935142 -6.656641 2.196503 0.018869 -0.022125 7.215481 -0.635351 -5.430057 -3.376475 -1.426515 1.013276 3.403012 -0.0 -0.0 -1e-06 
